<?xml version="1.0" standalone="no"?>
<!DOCTYPE svg PUBLIC "-//W3C//DTD SVG 20010904//EN"
 "http://www.w3.org/TR/2001/REC-SVG-20010904/DTD/svg10.dtd">
<svg version="1.0" xmlns="http://www.w3.org/2000/svg"
 width="500.000000pt" height="500.000000pt" viewBox="0 0 500.000000 500.000000"
 preserveAspectRatio="xMidYMid meet">

<g transform="translate(0.000000,500.000000) scale(0.100000,-0.100000)"
fill="#000000" stroke="none">
<path d="M1476 3880 c-482 -76 -909 -440 -1075 -914 -54 -154 -76 -296 -75
-501 0 -241 28 -377 121 -575 186 -400 541 -684 943 -755 130 -23 387 -20 512
5 217 45 411 126 549 230 83 62 192 188 292 337 71 107 256 460 350 672 36 81
38 83 60 68 188 -123 320 -192 453 -236 119 -40 232 -55 362 -48 123 6 198 24
297 72 171 83 280 220 357 448 25 75 32 113 35 207 11 255 -72 467 -251 646
-77 76 -107 98 -186 137 -160 79 -291 100 -445 73 -163 -28 -307 -87 -460
-187 -74 -48 -262 -223 -298 -278 l-16 -24 -103 92 c-326 291 -635 456 -970
517 -101 18 -371 26 -452 14z m339 -166 c116 -20 221 -49 315 -86 81 -32 234
-109 266 -133 10 -8 -20 5 -67 29 -397 199 -829 230 -1182 85 -91 -38 -188
-95 -261 -155 -116 -94 -246 -272 -306 -416 -13 -32 -25 -56 -28 -54 -6 6 56
155 90 216 161 286 422 459 774 514 122 19 291 19 399 0z m2120 -24 l50 -7
-63 -2 c-208 -4 -456 -114 -637 -282 -40 -37 -60 -51 -48 -34 30 42 149 155
203 192 155 105 346 157 495 133z m-2010 -400 c190 -51 410 -184 710 -429 44
-36 82 -66 84 -68 8 -6 -121 -246 -207 -387 -112 -183 -184 -277 -283 -370
-327 -308 -760 -315 -1081 -18 -148 138 -228 331 -228 550 1 366 230 659 576
736 100 23 322 16 429 -14z m2061 -31 c49 -30 113 -105 141 -166 23 -49 25
-64 21 -146 -5 -108 -24 -152 -90 -214 -59 -54 -117 -67 -257 -60 -113 5 -116
-3 -10 -28 93 -22 216 -20 281 5 93 35 173 138 185 240 6 54 -10 136 -39 194
-14 27 -16 37 -6 34 7 -2 26 -30 43 -63 39 -77 46 -171 19 -247 -25 -67 -104
-154 -169 -185 -98 -45 -288 -23 -455 53 -45 21 -77 41 -73 47 3 6 1 7 -5 3
-12 -7 -72 21 -107 49 -20 16 -20 16 3 5 33 -16 27 -6 -15 23 -21 15 -53 40
-72 56 l-33 29 43 64 c56 82 169 200 238 245 130 86 276 112 357 62z m-1311
-926 c-185 -318 -482 -529 -774 -547 l-76 -5 60 9 c235 38 458 171 651 390 36
41 87 105 112 142 53 76 68 83 27 11z"/>
<path d="M1558 3230 c-129 -23 -240 -77 -331 -160 -59 -54 -157 -190 -157
-218 0 -9 15 7 33 35 117 184 397 286 697 253 87 -10 234 -41 305 -65 43 -14
-30 37 -107 76 -138 70 -317 102 -440 79z"/>
<path d="M2541 2733 c-111 -225 -261 -460 -360 -565 -69 -73 -131 -123 -214
-170 -28 -16 -41 -26 -27 -22 64 18 252 147 340 234 63 62 194 255 299 440
l71 124 -28 23 c-15 12 -29 22 -32 23 -3 0 -25 -39 -49 -87z"/>
<path d="M3477 3735 c-188 -65 -377 -173 -521 -299 -35 -30 -38 -36 -26 -51
12 -14 18 -11 64 34 28 27 72 59 97 69 25 11 81 46 125 77 43 31 147 90 229
131 83 41 146 74 140 73 -5 0 -54 -16 -108 -34z"/>
<path d="M4519 2359 c-21 -39 -102 -120 -159 -159 -187 -126 -457 -152 -759
-74 -52 13 -96 23 -98 20 -6 -6 67 -49 86 -50 10 -1 25 -9 35 -19 14 -13 21
-15 32 -6 7 6 19 7 25 3 9 -5 7 -9 -6 -14 -15 -5 -3 -12 45 -28 256 -84 506
-29 681 148 61 62 146 186 135 197 -2 3 -10 -6 -17 -18z"/>
</g>
</svg>
